<?xml version="1.0" encoding="UTF-8"?>
<svg version="1.1" viewBox="0 0 2000 2000" width="500" height="500" xmlns="http://www.w3.org/2000/svg">
<path transform="translate(0)" d="m0 0h2e3v2e3h-2e3z" fill="#FCFCFC"/>
<path transform="translate(1034,482)" d="m0 0h34l26 3 24 5 20 6 19 7 21 11 16 11 13 11 12 12 11 14 10 17 11 23 10 26 18 46 12 30 15 40 9 27 7 28 5 29 1 9v32l-4 20-6 16-7 12-13 13-13 8-15 5-57 9-295 45-93 14-43 6-10 1h-30l-14-2-13-4-15-8-9-7-8-9-9-13-10-19-13-33-16-44-10-29-26-78-7-23-6-26-3-17-3-32v-12l2-23 3-12 8-18 7-11 12-14 14-13 16-11 19-11 26-11 19-6 21-5 57-9 111-17 100-15 25-3z" fill="#BFBFFD"/>
<path transform="translate(587,1166)" d="m0 0h58l5 24 1 10 1 1 1 10 1 2 1 9 2 7 3 20 2 7 2 15 3 13 11 59 5 29h3l2-13 2-9 1-1 2-13 4-19h2l1-13 1-1 2-13 1-1 1-8 2-6 2-13 1-1 2-13 1-1 2-13 1-1 1-8 2-6 1-8 1-1 2-13 2-6 3-18 2-6 2-1h68l3 9 1 8 2 6 3 17 4 16 1 8 1 1 1 8 2 6 3 14 2 13 2 5 1 9 2 5 2 13 2 5 2 13 2 5 2 14 3 9 4 22 4 1v-9l12-64 12-65 1-1 3-21 3-16 1-1 3-21 2-8h57v7l-5 18-2 11-2 5-1 8-2 6-4 20-1 1-1 8-2 6-1 7-1 1-2 12-2 6-2 12-2 6-3 17h-2v8l-2 5-1 8-2 6-4 17-3 17-3 13-1 1-2 12-1 1-2 13-1 1h-51l-26-1v-2h-2l-18-86-1-9-2-5-4-23-2-7-2-9-2-14-1-1-1-8-1-1-1-14h-2l-3-22v-2l-3 1-3 8-2 14-2 6-2 13-1 1-2 10-5 23-2 13-1 1-4 23-1 1-4 23-2 6-3 18-1 1-2 13-1 1-1 9-2 6-2 12-1 1h-78l-2-3-5-26-2-5-1-8-3-9-1-9-2-4-1-9-3-9v-9h-2l-2-13-2-5-2-13-1-1-1-8-3-9-3-14-1-8-2-5-3-14-2-12-1-1-1-8-2-5-2-13-1-1-3-17-2-5-1-10z" fill="#4D6EFE"/>
<path transform="translate(1034,482)" d="m0 0h34l26 3 24 5 20 6 19 7 21 11 16 11 13 11 12 12 11 14 10 17 11 23 10 26 18 46 12 30 15 40 9 27 7 28 5 29 1 9v32l-4 20-6 16-7 12-13 13-13 8-15 5-57 9-295 45-93 14-43 6-10 1h-30l-14-2-13-4-15-8-9-7-8-9-9-13-10-19-13-33-16-44-10-29-26-78-7-23-6-26-3-17-3-32v-12l2-23 3-12 8-18 7-11 12-14 14-13 16-11 19-11 26-11 19-6 21-5 57-9 111-17 100-15 25-3zm3 5-25 2-283 43-24 6-24 8-18 8-18 10-17 12-21 21-10 16-7 16-2 7v40l3 14 3 9 5 10 5 14 3 10 15 43 3 9h3l1 4 16 46 12 31 13 28 11 19 8 11 11 12 5 5 8 7 14 8 11 4 15 3h32l50-7 299-46 100-15 30-5 18-5 14-7 12-11 6-9 5-14 1-6v-20l-5-26-7-26-13-38-18-46-14-35-14-36-10-23-12-21-10-13-12-13-16-13-18-12-23-11-27-9-23-5-21-3-13-1z" fill="#9798F7"/>
<path transform="translate(1320,1161)" d="m0 0h15l27 2 5 2 7 1 14 6 9 4v2l5 1v2h3l1 2 5 3 8 9 2 3v3h2v3h2l5 11 3 12v12l-3 1h-7v2l-11 3-11 1v2h-8v2l-8 1-2-1-1-11-3-7-1-6h-2l-1-5-4-2-2-4-4-1v-2l-11-3-7-3-11-1h-24l-13 5-5 3h-2v2l-5 5h-2l-1 4-1 2v15l5 6v2l4 2v2l5 1v2l5 1 25 7v2h8v2h8v2h9l28 8 12 4v2l7 1v2l6 2 9 4 1 2 3 1 1 2 5 3 4 5v2l3 1v3h2l1 5h2l4 8 3 13v21l-2 9-3 9h-2l-3 9h-2v3l-2 1-1 3-8 7-2 3h-3v2l-11 6-4 1v2l-10 2v2l-19 5-12 2-10 1h-32l-21-3-18-5-5-2v-2l-7-1v-2l-5-1v-2l-5-1-5-5-6-4-3-4v-2l-3-1v-3h-2l-1-5-3-1-2-9h-2l-5-19v-7l9-4 28-9h7v-2l5-1 2 2 3 16 3 11h2v3l4 2 4 5 3 1v2l11 3v2l20 4h25l9-2h4v-2l10-2v-2l5-2 4-5 4-4 2-8v-11l-1-4-3-1v-2l-5-2-1-3-6-2-10-3v-2l-12-2-4-1v-2l-8-1-7-2-8-1v-2h-8l-7-3-11-2v-2h-7l-3-1v-2h-6v-2l-7-1v-2l-10-3v-2l-7-2-1-2-3-1v-2l-4-2-5-5-1-3-3-1v-3h-2l-3-9h-2l-4-15v-24l1-5h2l1-7 3-7 2-5h2l2-6 7-8 7-6 7-4h2v-2l8-4 24-8 5-1z" fill="#4D6EFE"/>
<path transform="translate(958,1166)" d="m0 0h61l3 8 2 7 3 13 3 8 3 13 2 7 3 8 2 9 3 9 4 13 3 13 3 8 4 14 2 9 3 8 4 17 3 8 4 13v7h2l4 13 2 2 4-10 15-51h2v-7l2-7h2v-7h2v-7h2v-7l2-7 5-17 3-8 4-16 6-21 3-8 4-16 5-17 2-1h59l-1 7-3 6-4 14h-2l-1 9-1 3h-2l-1 9-1 3h-2l-1 9-1 3h-2l-1 9-1 3h-2l-1 9-1 3h-2l-1 9-45 135h-2l-1 7-3 9-2 7h-52l-26-1-1-1-2-9-2-4v-5h-2l-2-7-7-21v-6h-2l-7-22-2-8v-4h-2l-3-9-3-11-3-7-2-6v-6h-2l-9-27v-7h-2l-2-8v-4h-2l-3-9-3-11-3-7-3-12v-3h-2l-2-12h-2l-3-12-4-9z" fill="#4D6EFE"/>
<path transform="translate(935,533)" d="m0 0h41l19 3 14 5 11 7 7 6 9 13 5 13 2 8v20l-5 12-9 9-12 7-17 5-10 1-10-9-13-8-9-4-4-4-13-18-12-17-9-12h-2v58l-5 5-6 8-7 16-2 2-14 2h-26l-16-4-12-6-11-10-9-14-5-11-2-10v-9l3-12 6-9 8-8 14-9 18-8 22-7 22-5z" fill="#F7F8FD"/>
<path transform="translate(1034,482)" d="m0 0h34l26 3 24 5 20 6 19 7 21 11 16 11 13 11 12 12 11 14 10 17 11 23 10 26 18 46 12 30 15 40 9 27 7 28 5 29 1 9v32l-4 20-6 16-7 12-13 13-13 8-15 5-57 9-295 45-93 14-43 6-10 1h-30l-14-2-13-4-15-8-9-7-8-9-9-13-10-19-13-33-16-44-10-29-26-78-7-23-6-26-3-17-3-32v-12l2-23 3-12 8-18 7-11 12-14 14-13 16-11 19-11 26-11 19-6 21-5 57-9 111-17 100-15 25-3zm3 5-25 2-283 43-24 6-24 8-18 8-18 10-17 12-21 21-10 16-7 16-3 13-1 11v25l2 23 5 29 8 30 9 28 12 36 15 44 13 36 11 30 11 26 8 14 10 13 10 10 13 8 14 5 10 2 10 1h18l23-2 123-19 260-40 79-12 26-5 12-5 10-7 8-9 8-14 4-10 4-20 1-6v-10l-3 3-5 10-9 10-10 7-11 5-13 4-22 4-53 8-44 7-84 13-63 9-149 23-55 8-23 3h-22l-20-4-16-6-12-7-13-11-8-9-12-17-13-24-9-19-14-36-15-44-1-5 5 3 16 46 12 31 13 28 11 19 8 11 11 12 5 5 8 7 14 8 11 4 15 3h32l50-7 299-46 100-15 30-5 18-5 14-7 12-11 6-9 5-14 1-6v-20l-5-26-7-26-13-38-18-46-14-35-14-36-10-23-12-21-10-13-12-13-16-13-18-12-23-11-27-9-23-5-21-3-13-1z" fill="#0D0809"/>
<path transform="translate(948,527)" d="m0 0h15l23 2 17 4 12 5 10 7 8 8 7 10 5 11 4 15v18l-4 11-4 6-4 5-11 8-13 6-17 5-28 5-59 10-25 3h-28l-16-4-12-6-9-7-7-7-8-13-5-13-2-12 1-14 5-12 7-9 10-9 14-8 16-7 19-6 31-7 31-4zm-13 6-39 6-25 6-24 8-16 8-11 7-9 9-6 10-2 10v9l2 10 8 16 8 11 9 8 12 6 16 4h26l14-2 3-4 7-16 6-7 4-4v-58l4 2 10 14 24 34 9 4 12 7 10 8 3 3 10-1 17-5 13-8 8-8 5-12v-20l-4-14-6-12-8-10-11-8-12-6-18-4-8-1z" fill="#0D0809"/>
<path transform="translate(938,626)" d="m0 0h19l10 4 16 11v3l-68 12-8 1-1-3 4-9 4-6 10-8 10-4z" fill="#9396F7"/>
<path transform="translate(923,583)" d="m0 0 4 4 13 19 9 11v2l-8 2-13 3h-4l-1-6z" fill="#4B6DFE"/>
<path transform="translate(825,584)" d="m0 0 9 2 23 8 2 1v4l-10-1-24-9-1-4z" fill="#0D0809"/>
<path transform="translate(999,557)" d="m0 0h4l-1 5-13 10-7 5h-3l-1-3 5-5 11-9z" fill="#0D0809"/>
<path transform="translate(880,552)" d="m0 0 4 2 9 16v5h-4l-9-16-1-6z" fill="#0D0809"/>
<path transform="translate(944,544)" d="m0 0h5l1 4-1 18h-5z" fill="#0D0809"/>
<path transform="translate(1317,806)" d="m0 0h1l2 12v20l-2 9h-1z" fill="#7B88FA"/>
<path transform="translate(1322,854)" d="m0 0h1v10l-2 12h-1l-2-10-4 7-6 5-2-1 7-7 6-10z" fill="#4B6DFF"/>
<path transform="translate(1037,487)" d="m0 0h27l13 1v1l-14 1-4-1-22-1z" fill="#5D77FD"/>
<path transform="translate(1024,488)" d="m0 0h10v1l-7 2-15-1v-1z" fill="#6C80FB"/>
</svg>
